<?xml version="1.0" encoding="utf-8"?>
<!-- Generator: Adobe Illustrator 21.0.0, SVG Export Plug-In . SVG Version: 6.00 Build 0)  -->
<svg version="1.1" id="Layer_1" xmlns="http://www.w3.org/2000/svg" xmlns:xlink="http://www.w3.org/1999/xlink" x="0px" y="0px"
	 viewBox="0 0 369.7 382.7" style="enable-background:new 0 0 369.7 382.7;" xml:space="preserve">
<style type="text/css">
	.st0{fill:#BEBEF4;}
</style>
<g>
	<polygon class="st0" points="119.8,247.7 6.8,185 125.3,133.4 150,6.5 235.7,103.3 364,87.6 298.4,199 353,316.2 226.8,288.3 
		132.2,376.4 	"/>
	<path d="M151.8,13.1l80.6,91.1l2.1,2.4l3.1-0.4l120.7-14.8l-61.7,104.8l-1.6,2.7l1.3,2.9L347.8,312L229,285.7l-3.1-0.7l-2.3,2.2
		l-89,82.9L123,249l-0.3-3.1l-2.8-1.5l-106.4-59l111.5-48.5l2.9-1.3l0.6-3.1L151.8,13.1 M148.2,0l-25.6,131.3L0,184.7l117,64.9
		l12.9,133.2l97.9-91.2l130.6,28.9l-56.5-121.3l67.9-115.3l-132.8,16.3L148.2,0L148.2,0z"/>
</g>
</svg>
